<?xml version="1.0" encoding="utf-8" standalone="no"?>
<!DOCTYPE svg PUBLIC "-//W3C//DTD SVG 1.1//EN"
  "http://www.w3.org/Graphics/SVG/1.1/DTD/svg11.dtd">
<svg xmlns:xlink="http://www.w3.org/1999/xlink" width="504pt" height="504pt" viewBox="0 0 504 504" xmlns="http://www.w3.org/2000/svg" version="1.1">
 <metadata>
  <rdf:RDF xmlns:dc="http://purl.org/dc/elements/1.1/" xmlns:cc="http://creativecommons.org/ns#" xmlns:rdf="http://www.w3.org/1999/02/22-rdf-syntax-ns#">
   <cc:Work>
    <dc:type rdf:resource="http://purl.org/dc/dcmitype/StillImage"/>
    <dc:date>2025-04-28T09:35:08.326463</dc:date>
    <dc:format>image/svg+xml</dc:format>
    <dc:creator>
     <cc:Agent>
      <dc:title>Matplotlib v3.10.1, https://matplotlib.org/</dc:title>
     </cc:Agent>
    </dc:creator>
   </cc:Work>
  </rdf:RDF>
 </metadata>
 <defs>
  <style type="text/css">*{stroke-linejoin: round; stroke-linecap: butt}</style>
 </defs>
 <g id="figure_1">
  <g id="patch_1">
   <path d="M 0 504 
L 504 504 
L 504 0 
L 0 0 
L 0 504 
z
" style="fill: none"/>
  </g>
  <g id="axes_1">
   <g id="patch_2">
    <path d="M 63 448.56 
L 453.6 448.56 
L 453.6 60.48 
L 63 60.48 
L 63 448.56 
z
" style="fill: none"/>
   </g>
   <g id="matplotlib.axis_1">
    <g id="xtick_1">
     <g id="line2d_1">
      <path d="M 113.665568 448.56 
L 113.665568 60.48 
" clip-path="url(#pe31a765430)" style="fill: none; stroke-dasharray: 5.55,2.4; stroke-dashoffset: 0; stroke: #625988; stroke-width: 1.5"/>
     </g>
     <g id="text_1">
      <!-- −4 -->
      <g style="fill: #ffffff" transform="translate(101.503263 473.597422) scale(0.165 -0.165)">
       <defs>
        <path id="DejaVuSans-2212" d="M 678 2272 
L 4684 2272 
L 4684 1741 
L 678 1741 
L 678 2272 
z
" transform="scale(0.015625)"/>
        <path id="DejaVuSans-34" d="M 2419 4116 
L 825 1625 
L 2419 1625 
L 2419 4116 
z
M 2253 4666 
L 3047 4666 
L 3047 1625 
L 3713 1625 
L 3713 1100 
L 3047 1100 
L 3047 0 
L 2419 0 
L 2419 1100 
L 313 1100 
L 313 1709 
L 2253 4666 
z
" transform="scale(0.015625)"/>
       </defs>
       <use xlink:href="#DejaVuSans-2212"/>
       <use xlink:href="#DejaVuSans-34" transform="translate(83.789062 0)"/>
      </g>
     </g>
    </g>
    <g id="xtick_2">
     <g id="line2d_2">
      <path d="M 186.354799 448.56 
L 186.354799 60.48 
" clip-path="url(#pe31a765430)" style="fill: none; stroke-dasharray: 5.55,2.4; stroke-dashoffset: 0; stroke: #625988; stroke-width: 1.5"/>
     </g>
     <g id="text_2">
      <!-- −2 -->
      <g style="fill: #ffffff" transform="translate(174.192494 473.597422) scale(0.165 -0.165)">
       <defs>
        <path id="DejaVuSans-32" d="M 1228 531 
L 3431 531 
L 3431 0 
L 469 0 
L 469 531 
Q 828 903 1448 1529 
Q 2069 2156 2228 2338 
Q 2531 2678 2651 2914 
Q 2772 3150 2772 3378 
Q 2772 3750 2511 3984 
Q 2250 4219 1831 4219 
Q 1534 4219 1204 4116 
Q 875 4013 500 3803 
L 500 4441 
Q 881 4594 1212 4672 
Q 1544 4750 1819 4750 
Q 2544 4750 2975 4387 
Q 3406 4025 3406 3419 
Q 3406 3131 3298 2873 
Q 3191 2616 2906 2266 
Q 2828 2175 2409 1742 
Q 1991 1309 1228 531 
z
" transform="scale(0.015625)"/>
       </defs>
       <use xlink:href="#DejaVuSans-2212"/>
       <use xlink:href="#DejaVuSans-32" transform="translate(83.789062 0)"/>
      </g>
     </g>
    </g>
    <g id="xtick_3">
     <g id="line2d_3">
      <path d="M 259.04403 448.56 
L 259.04403 60.48 
" clip-path="url(#pe31a765430)" style="fill: none; stroke-dasharray: 5.55,2.4; stroke-dashoffset: 0; stroke: #625988; stroke-width: 1.5"/>
     </g>
     <g id="text_3">
      <!-- 0 -->
      <g style="fill: #ffffff" transform="translate(253.794967 473.597422) scale(0.165 -0.165)">
       <defs>
        <path id="DejaVuSans-30" d="M 2034 4250 
Q 1547 4250 1301 3770 
Q 1056 3291 1056 2328 
Q 1056 1369 1301 889 
Q 1547 409 2034 409 
Q 2525 409 2770 889 
Q 3016 1369 3016 2328 
Q 3016 3291 2770 3770 
Q 2525 4250 2034 4250 
z
M 2034 4750 
Q 2819 4750 3233 4129 
Q 3647 3509 3647 2328 
Q 3647 1150 3233 529 
Q 2819 -91 2034 -91 
Q 1250 -91 836 529 
Q 422 1150 422 2328 
Q 422 3509 836 4129 
Q 1250 4750 2034 4750 
z
" transform="scale(0.015625)"/>
       </defs>
       <use xlink:href="#DejaVuSans-30"/>
      </g>
     </g>
    </g>
    <g id="xtick_4">
     <g id="line2d_4">
      <path d="M 331.733261 448.56 
L 331.733261 60.48 
" clip-path="url(#pe31a765430)" style="fill: none; stroke-dasharray: 5.55,2.4; stroke-dashoffset: 0; stroke: #625988; stroke-width: 1.5"/>
     </g>
     <g id="text_4">
      <!-- 2 -->
      <g style="fill: #ffffff" transform="translate(326.484198 473.597422) scale(0.165 -0.165)">
       <use xlink:href="#DejaVuSans-32"/>
      </g>
     </g>
    </g>
    <g id="xtick_5">
     <g id="line2d_5">
      <path d="M 404.422492 448.56 
L 404.422492 60.48 
" clip-path="url(#pe31a765430)" style="fill: none; stroke-dasharray: 5.55,2.4; stroke-dashoffset: 0; stroke: #625988; stroke-width: 1.5"/>
     </g>
     <g id="text_5">
      <!-- 4 -->
      <g style="fill: #ffffff" transform="translate(399.173429 473.597422) scale(0.165 -0.165)">
       <use xlink:href="#DejaVuSans-34"/>
      </g>
     </g>
    </g>
    <g id="text_6">
     <!-- попугаи -->
     <g style="fill: #ffffff" transform="translate(219.605625 494.706094) scale(0.18 -0.18)">
      <defs>
       <path id="DejaVuSans-43f" d="M 3603 3500 
L 3603 0 
L 3025 0 
L 3025 3041 
L 1159 3041 
L 1159 0 
L 581 0 
L 581 3500 
L 3603 3500 
z
" transform="scale(0.015625)"/>
       <path id="DejaVuSans-43e" d="M 1959 3097 
Q 1497 3097 1228 2736 
Q 959 2375 959 1747 
Q 959 1119 1226 758 
Q 1494 397 1959 397 
Q 2419 397 2687 759 
Q 2956 1122 2956 1747 
Q 2956 2369 2687 2733 
Q 2419 3097 1959 3097 
z
M 1959 3584 
Q 2709 3584 3137 3096 
Q 3566 2609 3566 1747 
Q 3566 888 3137 398 
Q 2709 -91 1959 -91 
Q 1206 -91 779 398 
Q 353 888 353 1747 
Q 353 2609 779 3096 
Q 1206 3584 1959 3584 
z
" transform="scale(0.015625)"/>
       <path id="DejaVuSans-443" d="M 2059 -325 
Q 1816 -950 1584 -1140 
Q 1353 -1331 966 -1331 
L 506 -1331 
L 506 -850 
L 844 -850 
Q 1081 -850 1212 -737 
Q 1344 -625 1503 -206 
L 1606 56 
L 191 3500 
L 800 3500 
L 1894 763 
L 2988 3500 
L 3597 3500 
L 2059 -325 
z
" transform="scale(0.015625)"/>
       <path id="DejaVuSans-433" d="M 581 0 
L 581 3500 
L 3050 3500 
L 3050 3041 
L 1159 3041 
L 1159 0 
L 581 0 
z
" transform="scale(0.015625)"/>
       <path id="DejaVuSans-430" d="M 2194 1759 
Q 1497 1759 1228 1600 
Q 959 1441 959 1056 
Q 959 750 1161 570 
Q 1363 391 1709 391 
Q 2188 391 2477 730 
Q 2766 1069 2766 1631 
L 2766 1759 
L 2194 1759 
z
M 3341 1997 
L 3341 0 
L 2766 0 
L 2766 531 
Q 2569 213 2275 61 
Q 1981 -91 1556 -91 
Q 1019 -91 701 211 
Q 384 513 384 1019 
Q 384 1609 779 1909 
Q 1175 2209 1959 2209 
L 2766 2209 
L 2766 2266 
Q 2766 2663 2505 2880 
Q 2244 3097 1772 3097 
Q 1472 3097 1187 3025 
Q 903 2953 641 2809 
L 641 3341 
Q 956 3463 1253 3523 
Q 1550 3584 1831 3584 
Q 2591 3584 2966 3190 
Q 3341 2797 3341 1997 
z
" transform="scale(0.015625)"/>
       <path id="DejaVuSans-438" d="M 3578 3500 
L 3578 0 
L 3006 0 
L 3006 2809 
L 1319 0 
L 581 0 
L 581 3500 
L 1153 3500 
L 1153 697 
L 2838 3500 
L 3578 3500 
z
" transform="scale(0.015625)"/>
      </defs>
      <use xlink:href="#DejaVuSans-43f"/>
      <use xlink:href="#DejaVuSans-43e" transform="translate(65.380859 0)"/>
      <use xlink:href="#DejaVuSans-43f" transform="translate(126.5625 0)"/>
      <use xlink:href="#DejaVuSans-443" transform="translate(191.943359 0)"/>
      <use xlink:href="#DejaVuSans-433" transform="translate(251.123047 0)"/>
      <use xlink:href="#DejaVuSans-430" transform="translate(303.662109 0)"/>
      <use xlink:href="#DejaVuSans-438" transform="translate(364.941406 0)"/>
     </g>
    </g>
   </g>
   <g id="matplotlib.axis_2">
    <g id="ytick_1">
     <g id="line2d_6">
      <path d="M 63 435.000603 
L 453.6 435.000603 
" clip-path="url(#pe31a765430)" style="fill: none; stroke-dasharray: 5.55,2.4; stroke-dashoffset: 0; stroke: #625988; stroke-width: 1.5"/>
     </g>
     <g id="text_7">
      <!-- −6 -->
      <g style="fill: #ffffff" transform="translate(26.175391 441.269314) scale(0.165 -0.165)">
       <defs>
        <path id="DejaVuSans-36" d="M 2113 2584 
Q 1688 2584 1439 2293 
Q 1191 2003 1191 1497 
Q 1191 994 1439 701 
Q 1688 409 2113 409 
Q 2538 409 2786 701 
Q 3034 994 3034 1497 
Q 3034 2003 2786 2293 
Q 2538 2584 2113 2584 
z
M 3366 4563 
L 3366 3988 
Q 3128 4100 2886 4159 
Q 2644 4219 2406 4219 
Q 1781 4219 1451 3797 
Q 1122 3375 1075 2522 
Q 1259 2794 1537 2939 
Q 1816 3084 2150 3084 
Q 2853 3084 3261 2657 
Q 3669 2231 3669 1497 
Q 3669 778 3244 343 
Q 2819 -91 2113 -91 
Q 1303 -91 875 529 
Q 447 1150 447 2328 
Q 447 3434 972 4092 
Q 1497 4750 2381 4750 
Q 2619 4750 2861 4703 
Q 3103 4656 3366 4563 
z
" transform="scale(0.015625)"/>
       </defs>
       <use xlink:href="#DejaVuSans-2212"/>
       <use xlink:href="#DejaVuSans-36" transform="translate(83.789062 0)"/>
      </g>
     </g>
    </g>
    <g id="ytick_2">
     <g id="line2d_7">
      <path d="M 63 375.099083 
L 453.6 375.099083 
" clip-path="url(#pe31a765430)" style="fill: none; stroke-dasharray: 5.55,2.4; stroke-dashoffset: 0; stroke: #625988; stroke-width: 1.5"/>
     </g>
     <g id="text_8">
      <!-- −4 -->
      <g style="fill: #ffffff" transform="translate(26.175391 381.367794) scale(0.165 -0.165)">
       <use xlink:href="#DejaVuSans-2212"/>
       <use xlink:href="#DejaVuSans-34" transform="translate(83.789062 0)"/>
      </g>
     </g>
    </g>
    <g id="ytick_3">
     <g id="line2d_8">
      <path d="M 63 315.197564 
L 453.6 315.197564 
" clip-path="url(#pe31a765430)" style="fill: none; stroke-dasharray: 5.55,2.4; stroke-dashoffset: 0; stroke: #625988; stroke-width: 1.5"/>
     </g>
     <g id="text_9">
      <!-- −2 -->
      <g style="fill: #ffffff" transform="translate(26.175391 321.466274) scale(0.165 -0.165)">
       <use xlink:href="#DejaVuSans-2212"/>
       <use xlink:href="#DejaVuSans-32" transform="translate(83.789062 0)"/>
      </g>
     </g>
    </g>
    <g id="ytick_4">
     <g id="line2d_9">
      <path d="M 63 255.296044 
L 453.6 255.296044 
" clip-path="url(#pe31a765430)" style="fill: none; stroke-dasharray: 5.55,2.4; stroke-dashoffset: 0; stroke: #625988; stroke-width: 1.5"/>
     </g>
     <g id="text_10">
      <!-- 0 -->
      <g style="fill: #ffffff" transform="translate(40.001875 261.564754) scale(0.165 -0.165)">
       <use xlink:href="#DejaVuSans-30"/>
      </g>
     </g>
    </g>
    <g id="ytick_5">
     <g id="line2d_10">
      <path d="M 63 195.394524 
L 453.6 195.394524 
" clip-path="url(#pe31a765430)" style="fill: none; stroke-dasharray: 5.55,2.4; stroke-dashoffset: 0; stroke: #625988; stroke-width: 1.5"/>
     </g>
     <g id="text_11">
      <!-- 2 -->
      <g style="fill: #ffffff" transform="translate(40.001875 201.663234) scale(0.165 -0.165)">
       <use xlink:href="#DejaVuSans-32"/>
      </g>
     </g>
    </g>
    <g id="ytick_6">
     <g id="line2d_11">
      <path d="M 63 135.493004 
L 453.6 135.493004 
" clip-path="url(#pe31a765430)" style="fill: none; stroke-dasharray: 5.55,2.4; stroke-dashoffset: 0; stroke: #625988; stroke-width: 1.5"/>
     </g>
     <g id="text_12">
      <!-- 4 -->
      <g style="fill: #ffffff" transform="translate(40.001875 141.761714) scale(0.165 -0.165)">
       <use xlink:href="#DejaVuSans-34"/>
      </g>
     </g>
    </g>
    <g id="ytick_7">
     <g id="line2d_12">
      <path d="M 63 75.591484 
L 453.6 75.591484 
" clip-path="url(#pe31a765430)" style="fill: none; stroke-dasharray: 5.55,2.4; stroke-dashoffset: 0; stroke: #625988; stroke-width: 1.5"/>
     </g>
     <g id="text_13">
      <!-- 6 -->
      <g style="fill: #ffffff" transform="translate(40.001875 81.860195) scale(0.165 -0.165)">
       <use xlink:href="#DejaVuSans-36"/>
      </g>
     </g>
    </g>
    <g id="text_14">
     <!-- удавы -->
     <g style="fill: #ffffff" transform="translate(18.431953 283.995) rotate(-90) scale(0.18 -0.18)">
      <defs>
       <path id="DejaVuSans-434" d="M 1384 459 
L 3053 459 
L 3053 3041 
L 1844 3041 
L 1844 2603 
Q 1844 1316 1475 628 
L 1384 459 
z
M 550 459 
Q 834 584 959 850 
Q 1266 1509 1266 2838 
L 1266 3500 
L 3631 3500 
L 3631 459 
L 4091 459 
L 4091 -884 
L 3631 -884 
L 3631 0 
L 794 0 
L 794 -884 
L 334 -884 
L 334 459 
L 550 459 
z
" transform="scale(0.015625)"/>
       <path id="DejaVuSans-432" d="M 1156 1613 
L 1156 459 
L 1975 459 
Q 2369 459 2575 607 
Q 2781 756 2781 1038 
Q 2781 1319 2575 1466 
Q 2369 1613 1975 1613 
L 1156 1613 
z
M 1156 3041 
L 1156 2072 
L 1913 2072 
Q 2238 2072 2444 2201 
Q 2650 2331 2650 2563 
Q 2650 2794 2444 2917 
Q 2238 3041 1913 3041 
L 1156 3041 
z
M 581 3500 
L 1950 3500 
Q 2566 3500 2897 3275 
Q 3228 3050 3228 2634 
Q 3228 2313 3059 2123 
Q 2891 1934 2559 1888 
Q 2956 1813 3175 1575 
Q 3394 1338 3394 981 
Q 3394 513 3033 256 
Q 2672 0 2003 0 
L 581 0 
L 581 3500 
z
" transform="scale(0.015625)"/>
       <path id="DejaVuSans-44b" d="M 3907 3500 
L 4482 3500 
L 4482 0 
L 3907 0 
L 3907 3500 
z
M 4195 3584 
L 4195 3584 
z
M 2781 1038 
Q 2781 1319 2576 1466 
Q 2372 1613 1978 1613 
L 1159 1613 
L 1159 459 
L 1978 459 
Q 2372 459 2576 607 
Q 2781 756 2781 1038 
z
M 581 3500 
L 1159 3500 
L 1159 2072 
L 2003 2072 
Q 2672 2072 3033 1817 
Q 3394 1563 3394 1038 
Q 3394 513 3033 256 
Q 2672 0 2003 0 
L 581 0 
L 581 3500 
z
" transform="scale(0.015625)"/>
      </defs>
      <use xlink:href="#DejaVuSans-443"/>
      <use xlink:href="#DejaVuSans-434" transform="translate(59.179688 0)"/>
      <use xlink:href="#DejaVuSans-430" transform="translate(128.320312 0)"/>
      <use xlink:href="#DejaVuSans-432" transform="translate(189.599609 0)"/>
      <use xlink:href="#DejaVuSans-44b" transform="translate(248.535156 0)"/>
     </g>
    </g>
   </g>
   <g id="PathCollection_1">
    <defs>
     <path id="me7ae587ab3" d="M 0 7.071068 
C 1.875269 7.071068 3.673985 6.326016 5 5 
C 6.326016 3.673985 7.071068 1.875269 7.071068 0 
C 7.071068 -1.875269 6.326016 -3.673985 5 -5 
C 3.673985 -6.326016 1.875269 -7.071068 0 -7.071068 
C -1.875269 -7.071068 -3.673985 -6.326016 -5 -5 
C -6.326016 -3.673985 -7.071068 -1.875269 -7.071068 0 
C -7.071068 1.875269 -6.326016 3.673985 -5 5 
C -3.673985 6.326016 -1.875269 7.071068 0 7.071068 
z
" style="stroke: #ffffff; stroke-width: 1.131371"/>
    </defs>
    <g clip-path="url(#pe31a765430)">
     <use xlink:href="#me7ae587ab3" x="341.482432" y="350.157607" style="fill: #d239f3; stroke: #ffffff; stroke-width: 1.131371"/>
     <use xlink:href="#me7ae587ab3" x="357.859814" y="338.966772" style="fill: #d239f3; stroke: #ffffff; stroke-width: 1.131371"/>
     <use xlink:href="#me7ae587ab3" x="357.143478" y="335.778717" style="fill: #d239f3; stroke: #ffffff; stroke-width: 1.131371"/>
     <use xlink:href="#me7ae587ab3" x="189.61282" y="142.873026" style="fill: #d239f3; stroke: #ffffff; stroke-width: 1.131371"/>
     <use xlink:href="#me7ae587ab3" x="369.888772" y="344.103011" style="fill: #d239f3; stroke: #ffffff; stroke-width: 1.131371"/>
     <use xlink:href="#me7ae587ab3" x="373.557687" y="363.834351" style="fill: #d239f3; stroke: #ffffff; stroke-width: 1.131371"/>
     <use xlink:href="#me7ae587ab3" x="356.354562" y="343.922227" style="fill: #d239f3; stroke: #ffffff; stroke-width: 1.131371"/>
     <use xlink:href="#me7ae587ab3" x="210.720961" y="430.92" style="fill: #d239f3; stroke: #ffffff; stroke-width: 1.131371"/>
     <use xlink:href="#me7ae587ab3" x="180.240313" y="392.760599" style="fill: #d239f3; stroke: #ffffff; stroke-width: 1.131371"/>
     <use xlink:href="#me7ae587ab3" x="354.996646" y="339.378049" style="fill: #d239f3; stroke: #ffffff; stroke-width: 1.131371"/>
     <use xlink:href="#me7ae587ab3" x="366.769286" y="356.721675" style="fill: #d239f3; stroke: #ffffff; stroke-width: 1.131371"/>
     <use xlink:href="#me7ae587ab3" x="334.285433" y="354.63822" style="fill: #d239f3; stroke: #ffffff; stroke-width: 1.131371"/>
     <use xlink:href="#me7ae587ab3" x="434.611597" y="234.305024" style="fill: #d239f3; stroke: #ffffff; stroke-width: 1.131371"/>
     <use xlink:href="#me7ae587ab3" x="369.745381" y="355.860268" style="fill: #d239f3; stroke: #ffffff; stroke-width: 1.131371"/>
     <use xlink:href="#me7ae587ab3" x="80.754545" y="419.488538" style="fill: #d239f3; stroke: #ffffff; stroke-width: 1.131371"/>
     <use xlink:href="#me7ae587ab3" x="291.072891" y="225.332549" style="fill: #d239f3; stroke: #ffffff; stroke-width: 1.131371"/>
     <use xlink:href="#me7ae587ab3" x="352.827357" y="337.435475" style="fill: #d239f3; stroke: #ffffff; stroke-width: 1.131371"/>
     <use xlink:href="#me7ae587ab3" x="368.345991" y="181.170706" style="fill: #d239f3; stroke: #ffffff; stroke-width: 1.131371"/>
     <use xlink:href="#me7ae587ab3" x="394.934622" y="344.465868" style="fill: #d239f3; stroke: #ffffff; stroke-width: 1.131371"/>
     <use xlink:href="#me7ae587ab3" x="374.649637" y="352.416827" style="fill: #d239f3; stroke: #ffffff; stroke-width: 1.131371"/>
     <use xlink:href="#me7ae587ab3" x="378.742424" y="359.846789" style="fill: #d239f3; stroke: #ffffff; stroke-width: 1.131371"/>
     <use xlink:href="#me7ae587ab3" x="349.672397" y="332.83766" style="fill: #d239f3; stroke: #ffffff; stroke-width: 1.131371"/>
     <use xlink:href="#me7ae587ab3" x="377.562759" y="332.975404" style="fill: #d239f3; stroke: #ffffff; stroke-width: 1.131371"/>
     <use xlink:href="#me7ae587ab3" x="362.123499" y="332.18331" style="fill: #d239f3; stroke: #ffffff; stroke-width: 1.131371"/>
     <use xlink:href="#me7ae587ab3" x="392.723887" y="333.782471" style="fill: #d239f3; stroke: #ffffff; stroke-width: 1.131371"/>
     <use xlink:href="#me7ae587ab3" x="359.370175" y="336.599021" style="fill: #d239f3; stroke: #ffffff; stroke-width: 1.131371"/>
     <use xlink:href="#me7ae587ab3" x="353.385682" y="313.041946" style="fill: #d239f3; stroke: #ffffff; stroke-width: 1.131371"/>
     <use xlink:href="#me7ae587ab3" x="386.314385" y="348.694772" style="fill: #d239f3; stroke: #ffffff; stroke-width: 1.131371"/>
     <use xlink:href="#me7ae587ab3" x="407.88351" y="338.228148" style="fill: #d239f3; stroke: #ffffff; stroke-width: 1.131371"/>
     <use xlink:href="#me7ae587ab3" x="348.773366" y="321.397119" style="fill: #d239f3; stroke: #ffffff; stroke-width: 1.131371"/>
     <use xlink:href="#me7ae587ab3" x="377.937444" y="335.316184" style="fill: #d239f3; stroke: #ffffff; stroke-width: 1.131371"/>
     <use xlink:href="#me7ae587ab3" x="351.576983" y="348.823104" style="fill: #d239f3; stroke: #ffffff; stroke-width: 1.131371"/>
     <use xlink:href="#me7ae587ab3" x="385.001385" y="359.19261" style="fill: #d239f3; stroke: #ffffff; stroke-width: 1.131371"/>
     <use xlink:href="#me7ae587ab3" x="383.013741" y="328.840875" style="fill: #d239f3; stroke: #ffffff; stroke-width: 1.131371"/>
     <use xlink:href="#me7ae587ab3" x="163.981594" y="408.848915" style="fill: #d239f3; stroke: #ffffff; stroke-width: 1.131371"/>
     <use xlink:href="#me7ae587ab3" x="365.146943" y="367.901466" style="fill: #d239f3; stroke: #ffffff; stroke-width: 1.131371"/>
     <use xlink:href="#me7ae587ab3" x="396.243761" y="374.38158" style="fill: #d239f3; stroke: #ffffff; stroke-width: 1.131371"/>
     <use xlink:href="#me7ae587ab3" x="362.225275" y="336.33805" style="fill: #d239f3; stroke: #ffffff; stroke-width: 1.131371"/>
     <use xlink:href="#me7ae587ab3" x="85.952305" y="155.686914" style="fill: #d239f3; stroke: #ffffff; stroke-width: 1.131371"/>
     <use xlink:href="#me7ae587ab3" x="369.659722" y="344.185706" style="fill: #d239f3; stroke: #ffffff; stroke-width: 1.131371"/>
     <use xlink:href="#me7ae587ab3" x="331.959162" y="334.971089" style="fill: #d239f3; stroke: #ffffff; stroke-width: 1.131371"/>
     <use xlink:href="#me7ae587ab3" x="85.079514" y="209.450506" style="fill: #d239f3; stroke: #ffffff; stroke-width: 1.131371"/>
     <use xlink:href="#me7ae587ab3" x="343.941671" y="357.829381" style="fill: #d239f3; stroke: #ffffff; stroke-width: 1.131371"/>
     <use xlink:href="#me7ae587ab3" x="358.185186" y="341.004774" style="fill: #d239f3; stroke: #ffffff; stroke-width: 1.131371"/>
     <use xlink:href="#me7ae587ab3" x="393.569886" y="327.729504" style="fill: #d239f3; stroke: #ffffff; stroke-width: 1.131371"/>
     <use xlink:href="#me7ae587ab3" x="373.09807" y="184.942179" style="fill: #d239f3; stroke: #ffffff; stroke-width: 1.131371"/>
     <use xlink:href="#me7ae587ab3" x="362.777128" y="304.412757" style="fill: #d239f3; stroke: #ffffff; stroke-width: 1.131371"/>
     <use xlink:href="#me7ae587ab3" x="342.413059" y="356.435809" style="fill: #d239f3; stroke: #ffffff; stroke-width: 1.131371"/>
     <use xlink:href="#me7ae587ab3" x="371.4331" y="332.425209" style="fill: #d239f3; stroke: #ffffff; stroke-width: 1.131371"/>
     <use xlink:href="#me7ae587ab3" x="384.712845" y="375.475603" style="fill: #d239f3; stroke: #ffffff; stroke-width: 1.131371"/>
     <use xlink:href="#me7ae587ab3" x="364.582234" y="348.930628" style="fill: #d239f3; stroke: #ffffff; stroke-width: 1.131371"/>
     <use xlink:href="#me7ae587ab3" x="80.789687" y="392.296361" style="fill: #d239f3; stroke: #ffffff; stroke-width: 1.131371"/>
     <use xlink:href="#me7ae587ab3" x="363.823067" y="355.846007" style="fill: #d239f3; stroke: #ffffff; stroke-width: 1.131371"/>
     <use xlink:href="#me7ae587ab3" x="350.077545" y="342.167329" style="fill: #d239f3; stroke: #ffffff; stroke-width: 1.131371"/>
     <use xlink:href="#me7ae587ab3" x="346.840299" y="366.565234" style="fill: #d239f3; stroke: #ffffff; stroke-width: 1.131371"/>
     <use xlink:href="#me7ae587ab3" x="396.511062" y="369.299356" style="fill: #d239f3; stroke: #ffffff; stroke-width: 1.131371"/>
     <use xlink:href="#me7ae587ab3" x="372.211348" y="348.265033" style="fill: #d239f3; stroke: #ffffff; stroke-width: 1.131371"/>
     <use xlink:href="#me7ae587ab3" x="368.1708" y="318.709975" style="fill: #d239f3; stroke: #ffffff; stroke-width: 1.131371"/>
     <use xlink:href="#me7ae587ab3" x="435.845455" y="414.764693" style="fill: #d239f3; stroke: #ffffff; stroke-width: 1.131371"/>
     <use xlink:href="#me7ae587ab3" x="373.459065" y="352.26081" style="fill: #d239f3; stroke: #ffffff; stroke-width: 1.131371"/>
     <use xlink:href="#me7ae587ab3" x="431.545706" y="257.946648" style="fill: #d239f3; stroke: #ffffff; stroke-width: 1.131371"/>
     <use xlink:href="#me7ae587ab3" x="372.821853" y="354.932177" style="fill: #d239f3; stroke: #ffffff; stroke-width: 1.131371"/>
     <use xlink:href="#me7ae587ab3" x="401.738045" y="357.984584" style="fill: #d239f3; stroke: #ffffff; stroke-width: 1.131371"/>
     <use xlink:href="#me7ae587ab3" x="372.474889" y="327.797914" style="fill: #d239f3; stroke: #ffffff; stroke-width: 1.131371"/>
     <use xlink:href="#me7ae587ab3" x="345.89233" y="334.455895" style="fill: #d239f3; stroke: #ffffff; stroke-width: 1.131371"/>
     <use xlink:href="#me7ae587ab3" x="381.742235" y="343.190434" style="fill: #d239f3; stroke: #ffffff; stroke-width: 1.131371"/>
     <use xlink:href="#me7ae587ab3" x="365.97628" y="341.942188" style="fill: #d239f3; stroke: #ffffff; stroke-width: 1.131371"/>
     <use xlink:href="#me7ae587ab3" x="280.645328" y="78.12" style="fill: #d239f3; stroke: #ffffff; stroke-width: 1.131371"/>
     <use xlink:href="#me7ae587ab3" x="369.841999" y="357.016623" style="fill: #d239f3; stroke: #ffffff; stroke-width: 1.131371"/>
     <use xlink:href="#me7ae587ab3" x="353.844356" y="347.421363" style="fill: #d239f3; stroke: #ffffff; stroke-width: 1.131371"/>
    </g>
   </g>
   <g id="line2d_13">
    <path d="M 63 136.864814 
L 453.6 136.864814 
" clip-path="url(#pe31a765430)" style="fill: none; stroke-dasharray: 11.1,4.8; stroke-dashoffset: 0; stroke: #ffffff; stroke-width: 3"/>
   </g>
   <g id="line2d_14">
    <path d="M 123.313076 448.56 
L 123.313076 136.864814 
" clip-path="url(#pe31a765430)" style="fill: none; stroke-dasharray: 11.1,4.8; stroke-dashoffset: 0; stroke: #ffffff; stroke-width: 3"/>
   </g>
   <g id="line2d_15">
    <path d="M 424.540016 448.56 
L 424.540016 136.864814 
" clip-path="url(#pe31a765430)" style="fill: none; stroke-dasharray: 11.1,4.8; stroke-dashoffset: 0; stroke: #ffffff; stroke-width: 3"/>
   </g>
   <g id="line2d_16">
    <path d="M 63 274.979966 
L 123.313076 274.979966 
" clip-path="url(#pe31a765430)" style="fill: none; stroke-dasharray: 11.1,4.8; stroke-dashoffset: 0; stroke: #ffffff; stroke-width: 3"/>
   </g>
   <g id="patch_3">
    <path d="M 63 448.56 
L 63 60.48 
" style="fill: none; stroke: #ffffff; stroke-width: 1.875; stroke-linejoin: miter; stroke-linecap: square"/>
   </g>
   <g id="patch_4">
    <path d="M 453.6 448.56 
L 453.6 60.48 
" style="fill: none; stroke: #ffffff; stroke-width: 1.875; stroke-linejoin: miter; stroke-linecap: square"/>
   </g>
   <g id="patch_5">
    <path d="M 63 448.56 
L 453.6 448.56 
" style="fill: none; stroke: #ffffff; stroke-width: 1.875; stroke-linejoin: miter; stroke-linecap: square"/>
   </g>
   <g id="patch_6">
    <path d="M 63 60.48 
L 453.6 60.48 
" style="fill: none; stroke: #ffffff; stroke-width: 1.875; stroke-linejoin: miter; stroke-linecap: square"/>
   </g>
  </g>
 </g>
 <defs>
  <clipPath id="pe31a765430">
   <rect x="63" y="60.48" width="390.6" height="388.08"/>
  </clipPath>
 </defs>
</svg>
