<?xml version="1.0" encoding="utf-8" standalone="no"?>
<!DOCTYPE svg PUBLIC "-//W3C//DTD SVG 1.1//EN"
  "http://www.w3.org/Graphics/SVG/1.1/DTD/svg11.dtd">
<svg xmlns:xlink="http://www.w3.org/1999/xlink" width="504pt" height="504pt" viewBox="0 0 504 504" xmlns="http://www.w3.org/2000/svg" version="1.1">
 <metadata>
  <rdf:RDF xmlns:dc="http://purl.org/dc/elements/1.1/" xmlns:cc="http://creativecommons.org/ns#" xmlns:rdf="http://www.w3.org/1999/02/22-rdf-syntax-ns#">
   <cc:Work>
    <dc:type rdf:resource="http://purl.org/dc/dcmitype/StillImage"/>
    <dc:date>2025-04-28T09:19:10.209943</dc:date>
    <dc:format>image/svg+xml</dc:format>
    <dc:creator>
     <cc:Agent>
      <dc:title>Matplotlib v3.10.1, https://matplotlib.org/</dc:title>
     </cc:Agent>
    </dc:creator>
   </cc:Work>
  </rdf:RDF>
 </metadata>
 <defs>
  <style type="text/css">*{stroke-linejoin: round; stroke-linecap: butt}</style>
 </defs>
 <g id="figure_1">
  <g id="patch_1">
   <path d="M 0 504 
L 504 504 
L 504 0 
L 0 0 
L 0 504 
z
" style="fill: none"/>
  </g>
  <g id="axes_1">
   <g id="patch_2">
    <path d="M 63 448.56 
L 453.6 448.56 
L 453.6 60.48 
L 63 60.48 
L 63 448.56 
z
" style="fill: none"/>
   </g>
   <g id="matplotlib.axis_1">
    <g id="xtick_1">
     <g id="line2d_1">
      <path d="M 73.06688 448.56 
L 73.06688 60.48 
" clip-path="url(#p1a704b3077)" style="fill: none; stroke-dasharray: 5.55,2.4; stroke-dashoffset: 0; stroke: #625988; stroke-width: 1.5"/>
     </g>
     <g id="text_1">
      <!-- 0.0 -->
      <g style="fill: #ffffff" transform="translate(59.946802 473.597422) scale(0.165 -0.165)">
       <defs>
        <path id="DejaVuSans-30" d="M 2034 4250 
Q 1547 4250 1301 3770 
Q 1056 3291 1056 2328 
Q 1056 1369 1301 889 
Q 1547 409 2034 409 
Q 2525 409 2770 889 
Q 3016 1369 3016 2328 
Q 3016 3291 2770 3770 
Q 2525 4250 2034 4250 
z
M 2034 4750 
Q 2819 4750 3233 4129 
Q 3647 3509 3647 2328 
Q 3647 1150 3233 529 
Q 2819 -91 2034 -91 
Q 1250 -91 836 529 
Q 422 1150 422 2328 
Q 422 3509 836 4129 
Q 1250 4750 2034 4750 
z
" transform="scale(0.015625)"/>
        <path id="DejaVuSans-2e" d="M 684 794 
L 1344 794 
L 1344 0 
L 684 0 
L 684 794 
z
" transform="scale(0.015625)"/>
       </defs>
       <use xlink:href="#DejaVuSans-30"/>
       <use xlink:href="#DejaVuSans-2e" transform="translate(63.623047 0)"/>
       <use xlink:href="#DejaVuSans-30" transform="translate(95.410156 0)"/>
      </g>
     </g>
    </g>
    <g id="xtick_2">
     <g id="line2d_2">
      <path d="M 184.059091 448.56 
L 184.059091 60.48 
" clip-path="url(#p1a704b3077)" style="fill: none; stroke-dasharray: 5.55,2.4; stroke-dashoffset: 0; stroke: #625988; stroke-width: 1.5"/>
     </g>
     <g id="text_2">
      <!-- 0.5 -->
      <g style="fill: #ffffff" transform="translate(170.939013 473.597422) scale(0.165 -0.165)">
       <defs>
        <path id="DejaVuSans-35" d="M 691 4666 
L 3169 4666 
L 3169 4134 
L 1269 4134 
L 1269 2991 
Q 1406 3038 1543 3061 
Q 1681 3084 1819 3084 
Q 2600 3084 3056 2656 
Q 3513 2228 3513 1497 
Q 3513 744 3044 326 
Q 2575 -91 1722 -91 
Q 1428 -91 1123 -41 
Q 819 9 494 109 
L 494 744 
Q 775 591 1075 516 
Q 1375 441 1709 441 
Q 2250 441 2565 725 
Q 2881 1009 2881 1497 
Q 2881 1984 2565 2268 
Q 2250 2553 1709 2553 
Q 1456 2553 1204 2497 
Q 953 2441 691 2322 
L 691 4666 
z
" transform="scale(0.015625)"/>
       </defs>
       <use xlink:href="#DejaVuSans-30"/>
       <use xlink:href="#DejaVuSans-2e" transform="translate(63.623047 0)"/>
       <use xlink:href="#DejaVuSans-35" transform="translate(95.410156 0)"/>
      </g>
     </g>
    </g>
    <g id="xtick_3">
     <g id="line2d_3">
      <path d="M 295.051301 448.56 
L 295.051301 60.48 
" clip-path="url(#p1a704b3077)" style="fill: none; stroke-dasharray: 5.55,2.4; stroke-dashoffset: 0; stroke: #625988; stroke-width: 1.5"/>
     </g>
     <g id="text_3">
      <!-- 1.0 -->
      <g style="fill: #ffffff" transform="translate(281.931223 473.597422) scale(0.165 -0.165)">
       <defs>
        <path id="DejaVuSans-31" d="M 794 531 
L 1825 531 
L 1825 4091 
L 703 3866 
L 703 4441 
L 1819 4666 
L 2450 4666 
L 2450 531 
L 3481 531 
L 3481 0 
L 794 0 
L 794 531 
z
" transform="scale(0.015625)"/>
       </defs>
       <use xlink:href="#DejaVuSans-31"/>
       <use xlink:href="#DejaVuSans-2e" transform="translate(63.623047 0)"/>
       <use xlink:href="#DejaVuSans-30" transform="translate(95.410156 0)"/>
      </g>
     </g>
    </g>
    <g id="xtick_4">
     <g id="line2d_4">
      <path d="M 406.043511 448.56 
L 406.043511 60.48 
" clip-path="url(#p1a704b3077)" style="fill: none; stroke-dasharray: 5.55,2.4; stroke-dashoffset: 0; stroke: #625988; stroke-width: 1.5"/>
     </g>
     <g id="text_4">
      <!-- 1.5 -->
      <g style="fill: #ffffff" transform="translate(392.923433 473.597422) scale(0.165 -0.165)">
       <use xlink:href="#DejaVuSans-31"/>
       <use xlink:href="#DejaVuSans-2e" transform="translate(63.623047 0)"/>
       <use xlink:href="#DejaVuSans-35" transform="translate(95.410156 0)"/>
      </g>
     </g>
    </g>
   </g>
   <g id="matplotlib.axis_2">
    <g id="ytick_1">
     <g id="line2d_5">
      <path d="M 63 448.56 
L 453.6 448.56 
" clip-path="url(#p1a704b3077)" style="fill: none; stroke-dasharray: 5.55,2.4; stroke-dashoffset: 0; stroke: #625988; stroke-width: 1.5"/>
     </g>
     <g id="text_5">
      <!-- 0 -->
      <g style="fill: #ffffff" transform="translate(40.001875 454.828711) scale(0.165 -0.165)">
       <use xlink:href="#DejaVuSans-30"/>
      </g>
     </g>
    </g>
    <g id="ytick_2">
     <g id="line2d_6">
      <path d="M 63 375.371881 
L 453.6 375.371881 
" clip-path="url(#p1a704b3077)" style="fill: none; stroke-dasharray: 5.55,2.4; stroke-dashoffset: 0; stroke: #625988; stroke-width: 1.5"/>
     </g>
     <g id="text_6">
      <!-- 20 -->
      <g style="fill: #ffffff" transform="translate(29.50375 381.640592) scale(0.165 -0.165)">
       <defs>
        <path id="DejaVuSans-32" d="M 1228 531 
L 3431 531 
L 3431 0 
L 469 0 
L 469 531 
Q 828 903 1448 1529 
Q 2069 2156 2228 2338 
Q 2531 2678 2651 2914 
Q 2772 3150 2772 3378 
Q 2772 3750 2511 3984 
Q 2250 4219 1831 4219 
Q 1534 4219 1204 4116 
Q 875 4013 500 3803 
L 500 4441 
Q 881 4594 1212 4672 
Q 1544 4750 1819 4750 
Q 2544 4750 2975 4387 
Q 3406 4025 3406 3419 
Q 3406 3131 3298 2873 
Q 3191 2616 2906 2266 
Q 2828 2175 2409 1742 
Q 1991 1309 1228 531 
z
" transform="scale(0.015625)"/>
       </defs>
       <use xlink:href="#DejaVuSans-32"/>
       <use xlink:href="#DejaVuSans-30" transform="translate(63.623047 0)"/>
      </g>
     </g>
    </g>
    <g id="ytick_3">
     <g id="line2d_7">
      <path d="M 63 302.183762 
L 453.6 302.183762 
" clip-path="url(#p1a704b3077)" style="fill: none; stroke-dasharray: 5.55,2.4; stroke-dashoffset: 0; stroke: #625988; stroke-width: 1.5"/>
     </g>
     <g id="text_7">
      <!-- 40 -->
      <g style="fill: #ffffff" transform="translate(29.50375 308.452473) scale(0.165 -0.165)">
       <defs>
        <path id="DejaVuSans-34" d="M 2419 4116 
L 825 1625 
L 2419 1625 
L 2419 4116 
z
M 2253 4666 
L 3047 4666 
L 3047 1625 
L 3713 1625 
L 3713 1100 
L 3047 1100 
L 3047 0 
L 2419 0 
L 2419 1100 
L 313 1100 
L 313 1709 
L 2253 4666 
z
" transform="scale(0.015625)"/>
       </defs>
       <use xlink:href="#DejaVuSans-34"/>
       <use xlink:href="#DejaVuSans-30" transform="translate(63.623047 0)"/>
      </g>
     </g>
    </g>
    <g id="ytick_4">
     <g id="line2d_8">
      <path d="M 63 228.995644 
L 453.6 228.995644 
" clip-path="url(#p1a704b3077)" style="fill: none; stroke-dasharray: 5.55,2.4; stroke-dashoffset: 0; stroke: #625988; stroke-width: 1.5"/>
     </g>
     <g id="text_8">
      <!-- 60 -->
      <g style="fill: #ffffff" transform="translate(29.50375 235.264355) scale(0.165 -0.165)">
       <defs>
        <path id="DejaVuSans-36" d="M 2113 2584 
Q 1688 2584 1439 2293 
Q 1191 2003 1191 1497 
Q 1191 994 1439 701 
Q 1688 409 2113 409 
Q 2538 409 2786 701 
Q 3034 994 3034 1497 
Q 3034 2003 2786 2293 
Q 2538 2584 2113 2584 
z
M 3366 4563 
L 3366 3988 
Q 3128 4100 2886 4159 
Q 2644 4219 2406 4219 
Q 1781 4219 1451 3797 
Q 1122 3375 1075 2522 
Q 1259 2794 1537 2939 
Q 1816 3084 2150 3084 
Q 2853 3084 3261 2657 
Q 3669 2231 3669 1497 
Q 3669 778 3244 343 
Q 2819 -91 2113 -91 
Q 1303 -91 875 529 
Q 447 1150 447 2328 
Q 447 3434 972 4092 
Q 1497 4750 2381 4750 
Q 2619 4750 2861 4703 
Q 3103 4656 3366 4563 
z
" transform="scale(0.015625)"/>
       </defs>
       <use xlink:href="#DejaVuSans-36"/>
       <use xlink:href="#DejaVuSans-30" transform="translate(63.623047 0)"/>
      </g>
     </g>
    </g>
    <g id="ytick_5">
     <g id="line2d_9">
      <path d="M 63 155.807525 
L 453.6 155.807525 
" clip-path="url(#p1a704b3077)" style="fill: none; stroke-dasharray: 5.55,2.4; stroke-dashoffset: 0; stroke: #625988; stroke-width: 1.5"/>
     </g>
     <g id="text_9">
      <!-- 80 -->
      <g style="fill: #ffffff" transform="translate(29.50375 162.076236) scale(0.165 -0.165)">
       <defs>
        <path id="DejaVuSans-38" d="M 2034 2216 
Q 1584 2216 1326 1975 
Q 1069 1734 1069 1313 
Q 1069 891 1326 650 
Q 1584 409 2034 409 
Q 2484 409 2743 651 
Q 3003 894 3003 1313 
Q 3003 1734 2745 1975 
Q 2488 2216 2034 2216 
z
M 1403 2484 
Q 997 2584 770 2862 
Q 544 3141 544 3541 
Q 544 4100 942 4425 
Q 1341 4750 2034 4750 
Q 2731 4750 3128 4425 
Q 3525 4100 3525 3541 
Q 3525 3141 3298 2862 
Q 3072 2584 2669 2484 
Q 3125 2378 3379 2068 
Q 3634 1759 3634 1313 
Q 3634 634 3220 271 
Q 2806 -91 2034 -91 
Q 1263 -91 848 271 
Q 434 634 434 1313 
Q 434 1759 690 2068 
Q 947 2378 1403 2484 
z
M 1172 3481 
Q 1172 3119 1398 2916 
Q 1625 2713 2034 2713 
Q 2441 2713 2670 2916 
Q 2900 3119 2900 3481 
Q 2900 3844 2670 4047 
Q 2441 4250 2034 4250 
Q 1625 4250 1398 4047 
Q 1172 3844 1172 3481 
z
" transform="scale(0.015625)"/>
       </defs>
       <use xlink:href="#DejaVuSans-38"/>
       <use xlink:href="#DejaVuSans-30" transform="translate(63.623047 0)"/>
      </g>
     </g>
    </g>
    <g id="ytick_6">
     <g id="line2d_10">
      <path d="M 63 82.619406 
L 453.6 82.619406 
" clip-path="url(#p1a704b3077)" style="fill: none; stroke-dasharray: 5.55,2.4; stroke-dashoffset: 0; stroke: #625988; stroke-width: 1.5"/>
     </g>
     <g id="text_10">
      <!-- 100 -->
      <g style="fill: #ffffff" transform="translate(19.005625 88.888117) scale(0.165 -0.165)">
       <use xlink:href="#DejaVuSans-31"/>
       <use xlink:href="#DejaVuSans-30" transform="translate(63.623047 0)"/>
       <use xlink:href="#DejaVuSans-30" transform="translate(127.246094 0)"/>
      </g>
     </g>
    </g>
   </g>
   <g id="patch_3">
    <path d="M 80.754545 448.56 
L 94.411888 448.56 
L 94.411888 78.96 
L 80.754545 78.96 
z
" clip-path="url(#p1a704b3077)" style="fill: #d239f3; fill-opacity: 0.75; stroke: #ffffff; stroke-width: 1.365734; stroke-linejoin: miter"/>
   </g>
   <g id="patch_4">
    <path d="M 94.411888 448.56 
L 108.069231 448.56 
L 108.069231 324.140198 
L 94.411888 324.140198 
z
" clip-path="url(#p1a704b3077)" style="fill: #d239f3; fill-opacity: 0.75; stroke: #ffffff; stroke-width: 1.365734; stroke-linejoin: miter"/>
   </g>
   <g id="patch_5">
    <path d="M 108.069231 448.56 
L 121.726573 448.56 
L 121.726573 419.284752 
L 108.069231 419.284752 
z
" clip-path="url(#p1a704b3077)" style="fill: #d239f3; fill-opacity: 0.75; stroke: #ffffff; stroke-width: 1.365734; stroke-linejoin: miter"/>
   </g>
   <g id="patch_6">
    <path d="M 121.726573 448.56 
L 135.383916 448.56 
L 135.383916 422.944158 
L 121.726573 422.944158 
z
" clip-path="url(#p1a704b3077)" style="fill: #d239f3; fill-opacity: 0.75; stroke: #ffffff; stroke-width: 1.365734; stroke-linejoin: miter"/>
   </g>
   <g id="patch_7">
    <path d="M 135.383916 448.56 
L 149.041259 448.56 
L 149.041259 444.900594 
L 135.383916 444.900594 
z
" clip-path="url(#p1a704b3077)" style="fill: #d239f3; fill-opacity: 0.75; stroke: #ffffff; stroke-width: 1.365734; stroke-linejoin: miter"/>
   </g>
   <g id="patch_8">
    <path d="M 149.041259 448.56 
L 162.698601 448.56 
L 162.698601 444.900594 
L 149.041259 444.900594 
z
" clip-path="url(#p1a704b3077)" style="fill: #d239f3; fill-opacity: 0.75; stroke: #ffffff; stroke-width: 1.365734; stroke-linejoin: miter"/>
   </g>
   <g id="patch_9">
    <path d="M 162.698601 448.56 
L 176.355944 448.56 
L 176.355944 441.241188 
L 162.698601 441.241188 
z
" clip-path="url(#p1a704b3077)" style="fill: #d239f3; fill-opacity: 0.75; stroke: #ffffff; stroke-width: 1.365734; stroke-linejoin: miter"/>
   </g>
   <g id="patch_10">
    <path d="M 176.355944 448.56 
L 190.013287 448.56 
L 190.013287 444.900594 
L 176.355944 444.900594 
z
" clip-path="url(#p1a704b3077)" style="fill: #d239f3; fill-opacity: 0.75; stroke: #ffffff; stroke-width: 1.365734; stroke-linejoin: miter"/>
   </g>
   <g id="patch_11">
    <path d="M 190.013287 448.56 
L 203.670629 448.56 
L 203.670629 448.56 
L 190.013287 448.56 
z
" clip-path="url(#p1a704b3077)" style="fill: #d239f3; fill-opacity: 0.75; stroke: #ffffff; stroke-width: 1.365734; stroke-linejoin: miter"/>
   </g>
   <g id="patch_12">
    <path d="M 203.670629 448.56 
L 217.327972 448.56 
L 217.327972 448.56 
L 203.670629 448.56 
z
" clip-path="url(#p1a704b3077)" style="fill: #d239f3; fill-opacity: 0.75; stroke: #ffffff; stroke-width: 1.365734; stroke-linejoin: miter"/>
   </g>
   <g id="patch_13">
    <path d="M 217.327972 448.56 
L 230.985315 448.56 
L 230.985315 430.26297 
L 217.327972 430.26297 
z
" clip-path="url(#p1a704b3077)" style="fill: #d239f3; fill-opacity: 0.75; stroke: #ffffff; stroke-width: 1.365734; stroke-linejoin: miter"/>
   </g>
   <g id="patch_14">
    <path d="M 230.985315 448.56 
L 244.642657 448.56 
L 244.642657 433.922376 
L 230.985315 433.922376 
z
" clip-path="url(#p1a704b3077)" style="fill: #d239f3; fill-opacity: 0.75; stroke: #ffffff; stroke-width: 1.365734; stroke-linejoin: miter"/>
   </g>
   <g id="patch_15">
    <path d="M 244.642657 448.56 
L 258.3 448.56 
L 258.3 437.581782 
L 244.642657 437.581782 
z
" clip-path="url(#p1a704b3077)" style="fill: #d239f3; fill-opacity: 0.75; stroke: #ffffff; stroke-width: 1.365734; stroke-linejoin: miter"/>
   </g>
   <g id="patch_16">
    <path d="M 258.3 448.56 
L 271.957343 448.56 
L 271.957343 430.26297 
L 258.3 430.26297 
z
" clip-path="url(#p1a704b3077)" style="fill: #d239f3; fill-opacity: 0.75; stroke: #ffffff; stroke-width: 1.365734; stroke-linejoin: miter"/>
   </g>
   <g id="patch_17">
    <path d="M 271.957343 448.56 
L 285.614685 448.56 
L 285.614685 437.581782 
L 271.957343 437.581782 
z
" clip-path="url(#p1a704b3077)" style="fill: #d239f3; fill-opacity: 0.75; stroke: #ffffff; stroke-width: 1.365734; stroke-linejoin: miter"/>
   </g>
   <g id="patch_18">
    <path d="M 285.614685 448.56 
L 299.272028 448.56 
L 299.272028 433.922376 
L 285.614685 433.922376 
z
" clip-path="url(#p1a704b3077)" style="fill: #d239f3; fill-opacity: 0.75; stroke: #ffffff; stroke-width: 1.365734; stroke-linejoin: miter"/>
   </g>
   <g id="patch_19">
    <path d="M 299.272028 448.56 
L 312.929371 448.56 
L 312.929371 426.603564 
L 299.272028 426.603564 
z
" clip-path="url(#p1a704b3077)" style="fill: #d239f3; fill-opacity: 0.75; stroke: #ffffff; stroke-width: 1.365734; stroke-linejoin: miter"/>
   </g>
   <g id="patch_20">
    <path d="M 312.929371 448.56 
L 326.586713 448.56 
L 326.586713 426.603564 
L 312.929371 426.603564 
z
" clip-path="url(#p1a704b3077)" style="fill: #d239f3; fill-opacity: 0.75; stroke: #ffffff; stroke-width: 1.365734; stroke-linejoin: miter"/>
   </g>
   <g id="patch_21">
    <path d="M 326.586713 448.56 
L 340.244056 448.56 
L 340.244056 441.241188 
L 326.586713 441.241188 
z
" clip-path="url(#p1a704b3077)" style="fill: #d239f3; fill-opacity: 0.75; stroke: #ffffff; stroke-width: 1.365734; stroke-linejoin: miter"/>
   </g>
   <g id="patch_22">
    <path d="M 340.244056 448.56 
L 353.901399 448.56 
L 353.901399 441.241188 
L 340.244056 441.241188 
z
" clip-path="url(#p1a704b3077)" style="fill: #d239f3; fill-opacity: 0.75; stroke: #ffffff; stroke-width: 1.365734; stroke-linejoin: miter"/>
   </g>
   <g id="patch_23">
    <path d="M 353.901399 448.56 
L 367.558741 448.56 
L 367.558741 441.241188 
L 353.901399 441.241188 
z
" clip-path="url(#p1a704b3077)" style="fill: #d239f3; fill-opacity: 0.75; stroke: #ffffff; stroke-width: 1.365734; stroke-linejoin: miter"/>
   </g>
   <g id="patch_24">
    <path d="M 367.558741 448.56 
L 381.216084 448.56 
L 381.216084 448.56 
L 367.558741 448.56 
z
" clip-path="url(#p1a704b3077)" style="fill: #d239f3; fill-opacity: 0.75; stroke: #ffffff; stroke-width: 1.365734; stroke-linejoin: miter"/>
   </g>
   <g id="patch_25">
    <path d="M 381.216084 448.56 
L 394.873427 448.56 
L 394.873427 441.241188 
L 381.216084 441.241188 
z
" clip-path="url(#p1a704b3077)" style="fill: #d239f3; fill-opacity: 0.75; stroke: #ffffff; stroke-width: 1.365734; stroke-linejoin: miter"/>
   </g>
   <g id="patch_26">
    <path d="M 394.873427 448.56 
L 408.530769 448.56 
L 408.530769 448.56 
L 394.873427 448.56 
z
" clip-path="url(#p1a704b3077)" style="fill: #d239f3; fill-opacity: 0.75; stroke: #ffffff; stroke-width: 1.365734; stroke-linejoin: miter"/>
   </g>
   <g id="patch_27">
    <path d="M 408.530769 448.56 
L 422.188112 448.56 
L 422.188112 448.56 
L 408.530769 448.56 
z
" clip-path="url(#p1a704b3077)" style="fill: #d239f3; fill-opacity: 0.75; stroke: #ffffff; stroke-width: 1.365734; stroke-linejoin: miter"/>
   </g>
   <g id="patch_28">
    <path d="M 422.188112 448.56 
L 435.845455 448.56 
L 435.845455 444.900594 
L 422.188112 444.900594 
z
" clip-path="url(#p1a704b3077)" style="fill: #d239f3; fill-opacity: 0.75; stroke: #ffffff; stroke-width: 1.365734; stroke-linejoin: miter"/>
   </g>
   <g id="patch_29">
    <path d="M 63 448.56 
L 63 60.48 
" style="fill: none; stroke: #ffffff; stroke-width: 1.875; stroke-linejoin: miter; stroke-linecap: square"/>
   </g>
   <g id="patch_30">
    <path d="M 453.6 448.56 
L 453.6 60.48 
" style="fill: none; stroke: #ffffff; stroke-width: 1.875; stroke-linejoin: miter; stroke-linecap: square"/>
   </g>
   <g id="patch_31">
    <path d="M 63 448.56 
L 453.6 448.56 
" style="fill: none; stroke: #ffffff; stroke-width: 1.875; stroke-linejoin: miter; stroke-linecap: square"/>
   </g>
   <g id="patch_32">
    <path d="M 63 60.48 
L 453.6 60.48 
" style="fill: none; stroke: #ffffff; stroke-width: 1.875; stroke-linejoin: miter; stroke-linecap: square"/>
   </g>
  </g>
 </g>
 <defs>
  <clipPath id="p1a704b3077">
   <rect x="63" y="60.48" width="390.6" height="388.08"/>
  </clipPath>
 </defs>
</svg>
